<svg width="29" height="24" viewBox="0 0 29 24" fill="none" xmlns="http://www.w3.org/2000/svg">
<path d="M10.4998 1.94666C11.7932 1.53573 13.1427 1.32881 14.4998 1.33332C20.0758 1.33332 23.8705 4.66666 26.1332 7.60533C27.2665 9.07999 27.8332 9.81466 27.8332 12C27.8332 14.1867 27.2665 14.9213 26.1332 16.3947C23.8705 19.3333 20.0758 22.6667 14.4998 22.6667C8.92384 22.6667 5.12917 19.3333 2.8665 16.3947C1.73317 14.9227 1.1665 14.1853 1.1665 12C1.1665 9.81332 1.73317 9.07866 2.8665 7.60533C3.55784 6.70242 4.32749 5.86228 5.1665 5.09466" stroke="#F82BA9" stroke-width="2" stroke-linecap="round"/>
<path d="M18.5 12C18.5 13.0609 18.0786 14.0783 17.3284 14.8284C16.5783 15.5786 15.5609 16 14.5 16C13.4391 16 12.4217 15.5786 11.6716 14.8284C10.9214 14.0783 10.5 13.0609 10.5 12C10.5 10.9391 10.9214 9.92172 11.6716 9.17157C12.4217 8.42143 13.4391 8 14.5 8C15.5609 8 16.5783 8.42143 17.3284 9.17157C18.0786 9.92172 18.5 10.9391 18.5 12Z" stroke="#F82BA9" stroke-width="2"/>
</svg>
